<?xml version="1.0" standalone="no"?>
<!DOCTYPE svg PUBLIC "-//W3C//DTD SVG 20010904//EN"
 "http://www.w3.org/TR/2001/REC-SVG-20010904/DTD/svg10.dtd">
<svg version="1.0" xmlns="http://www.w3.org/2000/svg"
 width="1200.000000pt" height="1200.000000pt" viewBox="0 0 1200.000000 1200.000000"
 preserveAspectRatio="xMidYMid meet">
<metadata>
Created by potrace 1.14, written by Peter Selinger 2001-2017
</metadata>
<g transform="translate(0.000000,1200.000000) scale(0.100000,-0.100000)"
fill="#000000" stroke="none">
<path d="M2995 11166 c-21 -34 -100 -170 -108 -186 -4 -8 -17 -31 -28 -50 -23
-38 -244 -420 -435 -750 -65 -113 -158 -275 -207 -360 -49 -85 -98 -168 -107
-185 -9 -16 -43 -75 -75 -130 -32 -55 -66 -115 -77 -132 -21 -38 -24 -43 -148
-258 -97 -168 -157 -271 -188 -327 -11 -18 -65 -111 -121 -207 -55 -96 -101
-176 -101 -178 0 -3 -8 -17 -19 -31 -10 -15 -32 -52 -49 -82 -16 -30 -59 -106
-96 -168 -36 -62 -77 -132 -89 -155 -13 -23 -84 -145 -157 -272 -134 -232
-147 -254 -275 -476 -38 -67 -77 -134 -85 -148 -57 -97 -140 -243 -170 -297
-19 -35 -41 -69 -48 -76 -6 -6 -12 -15 -12 -18 0 -4 -39 -74 -86 -156 -48 -82
-96 -165 -106 -184 -11 -19 -54 -92 -94 -162 -41 -69 -74 -131 -74 -137 0 -6
-4 -11 -9 -11 -31 0 -1 -75 79 -200 5 -8 17 -28 26 -45 9 -16 91 -158 182
-315 91 -157 174 -300 184 -319 45 -79 446 -775 505 -874 34 -60 63 -111 63
-114 0 -2 13 -24 30 -48 16 -24 30 -46 30 -49 0 -3 36 -67 80 -142 44 -75 80
-138 80 -140 0 -1 27 -48 60 -103 33 -56 60 -106 60 -111 0 -6 5 -10 10 -10 6
0 10 -4 10 -10 0 -5 27 -55 60 -111 33 -55 60 -102 60 -104 0 -2 27 -49 60
-104 33 -56 60 -103 60 -105 0 -3 23 -41 50 -86 28 -45 50 -83 50 -85 0 -1 36
-64 80 -139 44 -76 80 -139 80 -141 0 -3 15 -28 33 -57 19 -29 46 -75 62 -103
30 -55 171 -301 186 -325 23 -37 229 -393 229 -396 0 -1 46 -80 101 -176 56
-95 110 -189 120 -208 10 -19 92 -161 181 -315 l163 -280 2995 0 2994 0 53 90
c29 50 107 185 174 300 66 116 125 217 130 225 27 45 209 362 209 365 0 2 14
24 30 48 16 25 30 47 30 50 0 3 39 72 86 154 48 81 94 162 104 178 65 114 261
455 301 523 27 45 49 85 49 89 0 4 6 14 14 22 7 9 25 36 38 61 29 53 199 348
269 468 27 45 49 85 49 89 0 4 6 14 14 22 8 9 26 39 41 66 14 28 37 68 51 90
13 22 30 51 36 65 7 14 29 52 49 85 33 55 583 1007 630 1093 12 20 25 42 29
47 4 6 19 30 32 55 23 40 180 314 474 823 l103 178 -80 136 c-43 74 -79 137
-79 138 0 2 -20 38 -46 80 -25 43 -96 166 -158 274 -62 108 -178 309 -258 446
-80 138 -156 270 -170 295 -14 25 -76 132 -137 238 -61 106 -120 207 -130 226
-11 18 -37 62 -58 97 -21 35 -46 80 -56 99 -10 19 -27 49 -37 65 -11 17 -27
44 -36 60 -9 17 -83 145 -164 285 -81 140 -157 271 -168 290 -11 19 -70 123
-132 230 -62 107 -121 211 -132 230 -11 19 -32 55 -47 80 -30 52 -26 45 -150
261 -52 90 -133 229 -179 309 -47 80 -96 165 -110 190 -14 25 -53 92 -87 150
-34 58 -75 130 -92 160 -17 30 -104 181 -193 335 -89 154 -192 332 -228 396
l-67 115 -2993 0 -2994 0 -13 -20z"/>
</g>
</svg>
